<?xml version="1.0" encoding="utf-8"?>
<!-- Generator: Adobe Illustrator 27.3.1, SVG Export Plug-In . SVG Version: 6.00 Build 0)  -->
<svg version="1.1" id="Layer_1" xmlns="http://www.w3.org/2000/svg" xmlns:xlink="http://www.w3.org/1999/xlink" x="0px" y="0px"
	 viewBox="0 0 640 640" style="enable-background:new 0 0 640 640;" xml:space="preserve">
<style type="text/css">
	.st0{fill:url(#SVGID_1_);}
</style>
<linearGradient id="SVGID_1_" gradientUnits="userSpaceOnUse" x1="102.0192" y1="115.8399" x2="537.5704" y2="514.8001">
	<stop  offset="0" style="stop-color:#4C9EE6"/>
	<stop  offset="1" style="stop-color:#7144D8"/>
</linearGradient>
<path class="st0" d="M112,128c-26.5,0-48,21.5-48,48c0,15.1,7.1,29.3,19.2,38.4l208,156c17.1,12.8,40.5,12.8,57.6,0l208-156
	c12.1-9.1,19.2-23.3,19.2-38.4c0-26.5-21.5-48-48-48H112z M64,260v188c0,35.3,28.7,64,64,64h384c35.3,0,64-28.7,64-64V260
	L377.6,408.8c-34.1,25.6-81.1,25.6-115.2,0L64,260z"/>
</svg>
