<?xml version="1.0" encoding="utf-8"?>
<!-- Generator: Adobe Illustrator 27.3.1, SVG Export Plug-In . SVG Version: 6.00 Build 0)  -->
<svg version="1.1" id="Layer_1" xmlns="http://www.w3.org/2000/svg" xmlns:xlink="http://www.w3.org/1999/xlink" x="0px" y="0px"
	 viewBox="0 0 640 640" style="enable-background:new 0 0 640 640;" xml:space="preserve">
<style type="text/css">
	.st0{fill:url(#SVGID_1_);}
</style>
<linearGradient id="SVGID_1_" gradientUnits="userSpaceOnUse" x1="106.1288" y1="124.0963" x2="533.8712" y2="515.9037">
	<stop  offset="0" style="stop-color:#4C9EE6"/>
	<stop  offset="1" style="stop-color:#7144D8"/>
</linearGradient>
<path class="st0" d="M160,96c-35.3,0-64,28.7-64,64v320c0,35.3,28.7,64,64,64h320c35.3,0,64-28.7,64-64V160c0-35.3-28.7-64-64-64
	H160z M165,266.2h66.5V480H165V266.2z M236.7,198.5c0,21.3-17.2,38.5-38.5,38.5s-38.5-17.2-38.5-38.5s17.2-38.5,38.5-38.5
	S236.7,177.2,236.7,198.5z M413.9,480V376c0-24.8-0.5-56.7-34.5-56.7c-34.6,0-39.9,27-39.9,54.9V480h-66.4V266.2h63.7v29.2h0.9
	c8.9-16.8,30.6-34.5,62.9-34.5c67.2,0,79.7,44.3,79.7,101.9V480H413.9z"/>
</svg>
